<svg xmlns="http://www.w3.org/2000/svg" version="1.1" xmlns:xlink="http://www.w3.org/1999/xlink" xmlns:svgjs="http://svgjs.dev/svgjs" width="2048" height="2048" preserveAspectRatio="none" viewBox="0 0 2048 2048">
    <g mask="url(&quot;#SvgjsMask1039&quot;)" fill="none">
        <path d="M0 45.51C3.05 13.49 16.54 2.86 48.76 0C272.54 -19.89 280.38 0 512 0C768 0 768 0 1024 0C1280 0 1280 0 1536 0C1792 0 1920 -128 2048 0C2176 128 2048 256 2048 512C2048 768 2048 768 2048 1024C2048 1280 2048 1280 2048 1536C2048 1792 2176 1920 2048 2048C1920 2176 1792 2048 1536 2048C1280 2048 1280 2048 1024 2048C768 2048 768 2048 512 2048C296.81 2048 263.18 2103.48 81.62 2048C7.18 2025.26 13.54 1976.47 0 1891.56C-27.27 1720.47 0 1713.78 0 1536C0 1280 0 1280 0 1024C0 768 0 768 0 512C0 278.75 -21.33 269.49 0 45.51" stroke="rgba(0, 0, 0, 0.17)" stroke-width="1"></path>
        <path d="M512 954.47C463.38 954.47 434.85 986.81 434.85 1024C434.85 1066.28 458.61 1113.4 512 1113.4C698.33 1113.4 914.29 1063.92 914.29 1024C914.29 984.45 703.1 954.47 512 954.47" stroke="rgba(0, 0, 0, 0.17)" stroke-width="1"></path>
        <path d="M1024 1097.14C935.88 1097.14 892.34 1337.4 892.34 1536C892.34 1608.6 951.57 1639.55 1024 1639.55C1135.56 1639.55 1260.31 1628.5 1260.31 1536C1260.31 1357.3 1119.86 1097.14 1024 1097.14" stroke="rgba(0, 0, 0, 0.17)" stroke-width="1"></path>
        <path d="M0 329.96C128.42 143.97 160.71 124.26 353.52 0C416.71 -40.72 432.76 0 512 0C650.66 0 657.78 -30.15 789.33 0C913.78 28.52 912.73 117.33 1024 117.33C1104.17 117.33 1084.67 20.06 1172.21 0C1340.67 -38.61 1354.11 0 1536 0C1792 0 1881.95 -89.95 2048 0C2137.95 48.72 2136.15 207.33 2048 277.33C1880.15 410.62 1772.95 312.89 1536 406.59C1476.23 430.23 1454.55 460.67 1454.55 512C1454.55 559.32 1499.82 554.37 1536 603.9C1686.83 810.37 1673.5 820.82 1828.57 1024C1929.5 1156.26 1986.5 1131.28 2048 1274.78C2096.21 1387.28 2048 1405.39 2048 1536C2048 1792 2176 1920 2048 2048C1920 2176 1792 2048 1536 2048C1280 2048 1280 2048 1024 2048C768 2048 768 2048 512 2048C389.57 2048 343.36 2124.23 267.13 2048C87.36 1868.23 133.56 1792 0 1536C0 1536 0 1536 0 1536C0 1280 0 1280 0 1024C0 768 0 768 0 512C0 420.98 -48.34 399.97 0 329.96" stroke="rgba(0, 0, 0, 0.17)" stroke-width="1"></path>
        <path d="M512 796.44C359.72 834.47 259.51 902.3 259.51 1024C259.51 1162.37 384.45 1171.44 512 1316.57C609.44 1427.44 600.8 1436.91 709.49 1536C856.8 1670.31 842.79 1733.48 1024 1783.37C1256.04 1847.26 1337.16 1847.99 1536 1763.56C1628.47 1724.3 1606.62 1639.02 1606.62 1536C1606.62 1496.79 1562.6 1515.52 1536 1479.11C1375.58 1259.52 1401.35 1236.93 1232.59 1024C1145.35 913.92 1151.98 873.5 1024 833.08C791.68 759.72 741.97 739.01 512 796.44" stroke="rgba(0, 0, 0, 0.17)" stroke-width="1"></path>
        <path d="M158.9 512C158.9 387.1 310.58 221.8 512 192C743.13 157.8 782.01 265.17 1024 384C1107.83 425.17 1163.64 451.53 1163.64 512C1163.64 567.6 1106.65 600.1 1024 616.14C780.83 663.31 761.77 668.49 512 638.42C329.22 616.42 158.9 610.31 158.9 512" stroke="rgba(0, 0, 0, 0.17)" stroke-width="1"></path>
        <path d="M1536 30.12C1519.08 30.12 1509.05 9.04 1509.05 0C1509.05 -6.02 1522.53 0 1536 0C1572.57 0 1609.14 -7.24 1609.14 0C1609.14 7.82 1569.12 30.12 1536 30.12" stroke="rgba(0, 0, 0, 0.17)" stroke-width="1"></path>
        <path d="M0 731.43C21.46 731.43 84.16 881.7 84.16 1024C84.16 1111.01 22.24 1190.05 0 1190.05C-19.84 1190.05 0 1107.03 0 1024C0 877.71 -20.62 731.43 0 731.43" stroke="rgba(0, 0, 0, 0.17)" stroke-width="1"></path>
        <path d="M1469.63 1024C1469.63 977.43 1503.21 932.1 1536 932.1C1568.39 932.1 1600 977.46 1600 1024C1600 1073.19 1568.41 1123.56 1536 1123.56C1503.23 1123.56 1469.63 1073.16 1469.63 1024" stroke="rgba(0, 0, 0, 0.17)" stroke-width="1"></path>
        <path d="M474.07 1536C476.28 1516.32 494.82 1519.75 512 1519.75C521.1 1519.75 518.08 1529.2 526.63 1536C774.08 1732.92 763.2 1751.4 1024 1927.19C1143 2007.4 1286.24 2016.35 1286.24 2048C1286.24 2076.75 1155.12 2048 1024 2048C768 2048 768 2048 512 2048C482.32 2048 454.61 2074.58 452.64 2048C435.64 1818.58 446.6 1780.44 474.07 1536" stroke="rgba(0, 0, 0, 0.17)" stroke-width="1"></path>
        <path d="M1805.47 2048C1805.47 1868.74 1984.3 1536 2048 1536C2105.57 1536 2130.29 1874.29 2048 2048C2009.02 2130.29 1805.47 2124.74 1805.47 2048" stroke="rgba(0, 0, 0, 0.17)" stroke-width="1"></path>
    </g>
    <defs>
        <mask id="SvgjsMask1039">
            <rect width="2048" height="2048" fill="#ffffff"></rect>
        </mask>
    </defs>
</svg>